<svg viewBox="0 0 512 512" xmlns="http://www.w3.org/2000/svg" xmlns:xlink="http://www.w3.org/1999/xlink" width="512.000000" height="512.000000" fill="none">
	<rect id="背景" width="512.000000" height="512.000000" x="0.000000" y="0.000000" fill="rgb(255,255,255)" />
	<path id="" d="M250.625 216.518Q247.283 216.88 246.018 216.88Q234.365 216.88 228.991 208.75L224.564 217.06Q218.061 230.023 212.912 237.972Q217.519 238.875 219.551 240.005Q222.351 241.314 221.583 245.018Q221.403 245.921 221.042 254.051Q220.68 262.226 220.68 269.408L220.861 288.106Q221.042 294.565 221.042 306.986Q221.042 318.639 220.5 324.736Q219.37 337.337 211.963 337.337Q210.473 337.337 208.847 336.75Q206.408 335.847 203.427 332.053Q200.491 328.259 198.729 323.607Q196.968 319 197.375 315.477Q200.13 292.352 200.13 264.981Q200.13 257.936 199.949 254.638Q183.463 271.621 161.106 279.209Q160.745 279.389 160.158 279.389Q159.435 279.389 159.074 279.028Q158.712 278.667 158.712 278.305Q158.712 277.538 159.616 276.634Q180.166 257.032 192.09 233.817Q204.014 210.602 207.537 186.709Q208.079 183.005 208.079 179.708Q208.079 176.366 207.537 173.972Q206.769 170.268 210.292 170.268Q214.763 170.268 223.164 174.695Q231.565 179.121 235.63 183.412Q238.25 185.986 238.25 190.232Q238.25 193.574 236.579 196.329L233.056 202.065Q245.25 200.394 302.792 190.412L314.445 188.38Q320.362 187.296 322.213 187.296Q325.014 187.296 328.898 189.509Q332.014 191.542 334.86 194.793Q337.75 198 338.157 200.981Q338.338 201.704 338.338 203.194Q338.338 206.717 334.995 206.717Q327.407 206.537 306.857 208.569Q308.528 209.653 311.148 211.866Q313.542 213.537 313.542 215.976Q313.542 216.699 313.18 219.273Q311.69 234.811 311.69 255.18Q311.69 262.949 311.961 272.75Q312.232 282.551 312.232 287.158Q312.774 297.185 312.774 305.857Q312.774 314.212 311.735 318.548Q310.741 322.884 305.954 329.343Q300.037 337.518 295.791 339.731Q292.449 340.815 290.597 340.815Q288.023 340.815 286.894 338.783Q285.764 336.931 284.319 332.866Q282.829 328.078 280.525 324.194Q278.222 320.31 272.666 315.658Q271.537 315.116 271.537 313.987Q271.537 313.083 272.26 312.541Q273.028 311.954 274.112 312.135Q278.944 312.722 280.615 312.722Q281.338 312.722 285.042 313.083Q287.255 313.264 288.565 311.231Q289.875 309.199 290.055 306.986Q291.32 294.565 291.32 270.898Q291.32 245.741 290.055 229.662Q289.649 223.519 289.197 218.551Q288.745 213.537 288.023 211.686L287.842 210.963Q260.065 214.847 250.625 216.518ZM228.81 232.417Q228.087 231.513 228.087 230.565Q228.087 229.481 229.442 228.849Q230.843 228.171 233.417 228.171Q236.398 228.171 239.785 229.21Q243.218 230.204 245.657 231.513Q255.097 230.746 258.755 230.204Q261.555 229.662 265.62 226.319Q267.292 224.829 269.505 224.829Q271.176 224.829 272.079 225.19Q276.144 228.532 276.551 228.713Q282.106 233.365 282.106 233.365Q282.829 234.088 283.371 234.856Q283.913 235.578 283.913 236.482Q283.913 237.792 282.829 240.366Q280.977 246.102 280.977 264.033L280.977 270.718Q280.977 276.996 273.028 282.551Q271.356 283.5 269.685 283.5Q267.472 283.5 266.75 281.648Q265.259 279.028 263.588 277.176L259.162 277.763Q252.116 278.667 249.903 279.028Q249.361 282.37 247.96 284.674Q246.56 286.977 244.347 286.977Q242.134 286.977 238.972 284.945Q235.856 282.912 234.727 282.37Q232.333 280.519 232.333 277.944Q232.333 277.176 232.694 274.602L232.875 268.143Q232.875 252.199 231.204 239.282Q229.894 234.269 228.81 232.417ZM248.593 247.051Q248.412 252.019 248.773 263.13L263.588 261.82L263.407 246.463L263.407 245.741Q263.407 244.837 261.194 244.837Q254.51 245.379 248.593 247.051Z" fill="rgb(0,0,0)" fill-rule="nonzero" />
</svg>
