<svg xmlns="http://www.w3.org/2000/svg" viewBox="0 0 410 404"><defs><linearGradient id="a" x1="0" y1="0" x2="1" y2="1"><stop offset="0" stop-color="#41d1ff"/><stop offset="1" stop-color="#bd34fe"/></linearGradient><linearGradient id="b" x1="0" y1="0" x2="1" y2="1"><stop offset="0" stop-color="#ffea83"/><stop offset=".083" stop-color="#FFDD35"/><stop offset="1" stop-color="#FFA800"/></linearGradient></defs><path fill="#000" fill-opacity=".01" d="M0 0h410v404H0z"/><path fill="url(#a)" d="M399.33 78.15 215.5 390.96c-5.88 9.9-20.55 9.9-26.43 0L10.67 78.15c-6.27-10.56 1.77-24 13.22-22.32l181.62 26.83a15 15 0 0 0 4.38 0l181.62-26.83c11.46-1.68 19.5 11.76 13.22 22.32Z"/><path fill="url(#b)" d="M307.03 1.8 166.3 28.21c-1.86.34-3.22 1.94-3.25 3.83l-4.35 215.32c-.05 2.66 2.4 4.7 5 4.13l68.69-14.99c2.87-.62 5.43 1.87 4.89 4.75l-20.37 111.02c-.61 3.31 3.68 5.11 5.45 2.37l4.33-6.78L337.5 55.66c1.01-2.51-.99-5.24-3.65-4.79l-70.38 12.01c-2.88.49-5.21-2.05-4.58-4.89l15.54-60.8c.68-2.64-1.67-5.04-4.4-4.4Z"/></svg>